<svg xmlns="http://www.w3.org/2000/svg" viewBox="0 0 13 15" class="design-iconfont">
  <path d="M302.029784,49.8571432 C302.628226,49.8571432 303.113359,50.3368381 303.113359,50.9285717 L303.113359,60.9285715 C303.113359,61.5203051 302.628226,62 302.029784,62 L294.083574,62 C293.796192,62 293.520581,61.8871177 293.317372,61.6861858 C293.114162,61.485254 293,61.212732 293,60.9285715 L293,50.9285717 C293,50.3368381 293.485133,49.8571432 294.083574,49.8571432 L302.029784,49.8571432 Z M301.668593,51.2857146 L294.444765,51.2857146 L294.444765,60.5714286 L301.668593,60.5714286 L301.668593,51.2857146 Z M304.916426,47.0000002 C305.474831,46.9996588 305.942059,47.4189755 305.995666,47.9685718 L306,48.071429 L306,57.7092858 C305.999576,58.0872096 305.701504,58.3994033 305.319953,58.4215514 C304.938401,58.4436995 304.605434,58.168136 304.560291,57.7928573 L304.555235,57.7092858 L304.555235,48.4285718 L297.334297,48.4285718 C296.968067,48.428524 296.659819,48.1574953 296.61697,47.7978575 L296.611914,47.7142861 C296.611914,47.3521612 296.886063,47.047369 297.249778,47.0050004 L297.334297,47.0000002 L304.916426,47.0000002 Z" transform="translate(-293 -47)" fill="#BABABA" fill-rule="nonzero"/>
</svg>
