<?xml version="1.0" standalone="no"?><!DOCTYPE svg PUBLIC "-//W3C//DTD SVG 1.1//EN" "http://www.w3.org/Graphics/SVG/1.1/DTD/svg11.dtd"><svg t="1699838384840" class="icon" viewBox="0 0 1024 1024" version="1.1" xmlns="http://www.w3.org/2000/svg" p-id="4313" xmlns:xlink="http://www.w3.org/1999/xlink" width="32" height="32"><path d="M509.9008 0C294.4 0 111.906133 132.7104 33.194667 323.310933h949.2992C912.093867 132.7104 725.504 0 509.9008 0z" fill="#FF9933" p-id="4314"></path><path d="M29.098667 675.805867c66.304 203.093333 261.205333 348.2112 485.000533 348.2112s414.498133-145.1008 485.000533-348.2112H29.098667z" fill="#138808" p-id="4315"></path><path d="M1024 514.0992c0-66.286933-12.407467-132.693333-37.290667-190.685867H37.2736C12.424533 381.508267 0 447.812267 0 514.116267c0 58.094933 8.2944 111.889067 29.013333 161.6896h965.888C1015.7056 626.005333 1024 568.0128 1024 514.116267z" fill="#FFFFFF" p-id="4316"></path><path d="M660.206933 449.501867l-15.701333-4.898134 8.994133-8.6016 15.701334 4.898134-8.994134 8.6016z m15.496534 37.410133l-12.8-6.997333 12.8-6.997334 12.9024 6.997334-12.9024 6.997333z m-2.594134 38.4l-9.216-8.704 15.701334-4.898133 9.096533 8.6016-15.581867 5.000533z m-21.111466 36.693333l-4.693334-9.693866 17.595734-2.5088 4.795733 9.608533c0-0.1024-17.698133 2.594133-17.698133 2.594133z" fill="#000066" p-id="4317"></path><path d="M653.0048 449.501867l-8.6016-4.898134 4.898133-8.6016 8.6016 4.898134-4.898133 8.6016z m8.4992 37.410133l-6.997333-7.099733 6.997333-6.997334 6.997333 6.997334-6.997333 7.099733z m-1.501867 38.4l-5.000533-8.704 8.6016-4.898133 5.000533 8.6016c-0.1024 0-8.6016 5.000533-8.6016 5.000533z m-11.400533 36.693333l-2.5088-9.693866 9.608533-2.5088 2.594134 9.608533-9.693867 2.594133z m-147.114667-208.298666l-6.997333 7.099733-7.082667-7.099733 7.099734-6.997334 6.997333 6.997334z m38.519467 1.604266l-8.6016 4.898134-4.898133-8.6016 8.584533-4.898134 4.9152 8.6016z m36.590933 11.298134l-9.591466 2.594133-2.5088-9.591467 9.608533-2.594133 2.491733 9.591467z m22.596267 10.5984h9.898667v9.898666h-9.898667v-9.898666z m35.908267 38.1952l-9.608534-2.594134 2.6112-9.608533 9.591467 2.6112-2.594133 9.591467z m-6.894934 179.0976v-9.898667h9.898667v9.898667h-9.898667z m-28.3136 26.0096l2.5088-9.608534 9.591467 2.6112-2.491733 9.591467-9.608534-2.594133z m-33.9968 17.902933l5.000534-8.6016 8.6016 4.898133-4.898134 8.6016c-0.1024 0-8.704-4.898133-8.704-4.898133z m-37.597866 8.4992l7.099733-6.997333 6.997333 6.997333-6.997333 6.997333-7.099733-6.997333z m-38.2976-1.501867l8.704-5.000533 4.898133 8.6016-8.6016 4.898133c0-0.1024-5.000533-8.4992-5.000533-8.4992z m-36.795734-11.400533l9.591467-2.594133 2.5088 9.591466-9.608533 2.594134-2.491734-9.591467z m-32.512-20.497067h9.898667v9.898667h-9.898667v-9.898667z m-25.992533-28.3136l9.608533 2.6112-2.6112 9.591467-9.591466-2.594133 2.594133-9.608534z m-17.902933-33.9968l8.6016 4.9152-5.000534 8.584534-8.6016-4.898134 5.000534-8.6016z m-8.3968-37.495466l7.099733 6.997333-7.099733 6.997333-6.997334-6.997333 6.997334-6.997333z m1.399466-38.2976l5.000534 8.704-8.6016 4.898133-4.898134-8.6016 8.4992-5.000533z m1.8944-34.0992l9.608534-2.594134 2.594133 9.591467-9.591467 2.594133-2.6112-9.591466z m30.1056-35.208534v9.898667h-9.898666v-9.898667h9.898666z m28.194134-25.992533l-2.491734 9.608533-9.608533-2.6112 2.5088-9.591466 9.591467 2.594133z m34.0992-17.902933l-4.898134 8.704-8.6016-4.898134 4.898134-8.6016 8.6016 4.795734z m47.803733 137.710933l4.1984-58.606933-4.608-88.200534-4.096 88.302934 4.5056 58.487466z m0 0l19.2-55.6032 18.397867-86.408533-26.794667 84.206933c-0.1024 0.1024-10.8032 57.787733-10.8032 57.787733z" fill="#000066" p-id="4318"></path><path d="M511.8976 499.899733l32.904533-48.5888 40.192-78.6944-47.786666 74.3936-25.309867 52.906667z m0 0l44.407467-38.4 59.101866-65.706666-65.314133 59.613866-38.1952 44.4928z m0 0l52.804267-25.685333 74.001066-48.008533-78.506666 40.6016c0.1024 0-48.298667 33.109333-48.298667 33.109333z m0 0l57.6-11.195733 84.104533-27.306667-86.306133 18.807467-55.3984 19.694933z" fill="#000066" p-id="4319"></path><path d="M511.8976 499.899733l58.606933 4.215467 88.200534-4.608-88.200534-4.096-58.606933 4.5056z m0 0l55.6032 19.2 86.493867 18.414934-84.189867-26.794667-57.9072-10.820267z m0 0l48.708267 33.006934 78.6944 40.209066-74.410667-47.616-52.992-25.6z m0 0l38.4 44.407467 65.706667 59.204267-59.5968-65.399467c0.085333 0-44.509867-38.212267-44.509867-38.212267z m0 0l25.7024 52.804267 48.093867 74.001067-40.584534-78.506667c0 0.1024-33.211733-48.298667-33.211733-48.298667z m0 0l11.093333 57.7024 27.306667 84.002134-18.7904-86.289067-19.6096-55.3984z" fill="#000066" p-id="4320"></path><path d="M513.792 499.899733l-4.3008 58.606934 4.9152 88.302933 4.3008-88.302933-4.9152-58.606934z m0 0l-20.189867 55.517867-19.4048 86.493867 28.194134-84.206934 11.400533-57.787733z m-1.877333 0L478.890667 548.522667l-40.004267 78.6944 47.598933-74.3936 25.3952-52.906667z m0 0l-44.407467 38.4-59.221333 65.706667 65.416533-59.392 38.1952-44.714667z m0 0L459.093333 525.602133l-74.1888 48.110934 78.506667-40.618667 48.4864-33.194667z m0 0l-57.617067 11.2128-84.104533 27.306667 86.306133-18.807467a9000.618667 9000.618667 0 0 1 55.3984-19.712z m0 0l-58.5216-4.1984-88.285867 4.7104 88.285867 4.096 58.504533-4.608z m0 0l-55.517867-19.2-86.391467-18.295466 84.189867 26.709333 57.7024 10.8032z m0 0l-48.622934-32.989866-78.677333-40.004267 74.376533 47.616c-0.085333 0 52.906667 25.3952 52.906667 25.3952z m0 0l-38.4-44.3904-65.706667-59.101866 59.5968 65.297066c-0.1024 0 44.4928 38.1952 44.4928 38.1952z m0 0l-25.719467-52.7872-48.093867-74.001066 40.6016 78.506666 33.194667 48.298667z m0 0l-11.1104-57.685333-27.409067-84.104533 18.909867 86.391466 19.592533 55.3984z" fill="#000066" p-id="4321"></path><path d="M558.097067 339.4048a166.4512 166.4512 0 0 0-175.394134 59.5968 166.946133 166.946133 0 0 0-12.117333 184.814933 166.741333 166.741333 0 0 0 166.109867 81.885867 166.3488 166.3488 0 0 0 139.195733-122.197333 166.5024 166.5024 0 0 0-16.6912-126.498134 165.888 165.888 0 0 0-101.102933-77.602133z m-81.493334 303.616a147.797333 147.797333 0 0 1-35.703466-270.711467 147.626667 147.626667 0 0 1 216.490666 166.0928c-20.8896 78.8992-101.888 125.713067-180.7872 104.618667z" fill="#000066" p-id="4322"></path><path d="M543.607467 508.0064a29.661867 29.661867 0 1 1-54.408534 7.202133 29.866667 29.866667 0 0 1 2.2016-33.006933 29.610667 29.610667 0 0 1 31.300267-10.581333 29.730133 29.730133 0 0 1 20.906667 36.386133z m32.989866-141.397333l-9.591466 2.594133-2.5088-9.591467 9.608533-2.594133 2.491733 9.591467z m22.596267 10.5984h9.898667v9.898666h-9.898667v-9.898666z m35.908267 38.1952l-9.608534-2.594134 2.6112-9.608533 9.591467 2.6112-2.594133 9.591467z m-6.894934 179.0976v-9.898667h9.898667v9.898667h-9.898667z m-28.3136 26.0096l2.5088-9.608534 9.591467 2.6112-2.491733 9.591467-9.608534-2.594133z m-33.9968 17.902933l5.000534-8.6016 8.6016 4.898133-4.898134 8.6016c-0.1024 0-8.704-4.898133-8.704-4.898133z m-37.597866 8.4992l7.099733-6.997333 6.997333 6.997333-6.997333 6.997333-7.099733-6.997333z m-38.2976-1.501867l8.704-5.000533 4.898133 8.6016-8.6016 4.898133c0-0.1024-5.000533-8.4992-5.000533-8.4992z m-36.795734-11.400533l9.591467-2.594133 2.5088 9.591466-9.608533 2.594134-2.491734-9.591467z m-32.512-20.497067h9.898667v9.898667h-9.898667v-9.898667z m-25.992533-28.3136l9.608533 2.6112-2.6112 9.591467-9.591466-2.594133 2.594133-9.608534z m-17.902933-33.9968l8.6016 4.9152-5.000534 8.584534-8.6016-4.898134 5.000534-8.6016z m-8.3968-37.495466l7.099733 6.997333-7.099733 6.997333-6.997334-6.997333 6.997334-6.997333z m1.399466-38.2976l5.000534 8.704-8.6016 4.898133-4.898134-8.6016 8.4992-5.000533z m1.8944-34.0992l9.608534-2.594134 2.594133 9.591467-9.591467 2.594133-2.6112-9.591466z m30.1056-35.208534v9.898667h-9.898666v-9.898667h9.898666z m28.194134-25.992533l-2.491734 9.608533-9.608533-2.6112 2.5088-9.591466 9.591467 2.594133z m34.0992-17.902933l-4.898134 8.704-8.6016-4.898134 4.898134-8.6016 8.6016 4.795734z m37.410133-8.4992l-6.997333 7.099733-7.099734-7.099733 7.099734-6.997334 6.997333 6.997334z" fill="#000066" p-id="4323"></path></svg>