<svg xmlns="http://www.w3.org/2000/svg" viewBox="0 0 14 14" class="design-iconfont">
  <g fill-rule="nonzero" fill="none">
    <path d="M0.000490407308,6.97884327 C0.000490407308,10.8308293 3.12314206,13.953481 6.97512809,13.953481 C10.8271141,13.953481 13.9497658,10.8308293 13.9497658,6.97884327 C13.9497658,3.12685724 10.8271141,0.0042055898 6.97512809,0.0042055898 C3.12314206,0.0042055898 0.000490407308,3.12685724 0.000490407308,6.97884327 Z" fill="#FFF"/>
    <path d="M6.97512808,6.97884327 L1.95085272,11.8154375 C2.9345476,12.8392449 4.20782454,13.537722 5.59985635,13.8171585 C7.84298812,14.2679663 10.1645704,13.5898312 11.8123563,12.0024846 C13.1773073,10.6881515 13.9467759,8.873717 13.9428065,6.97884327 L6.97576214,6.97884327 L6.97512808,6.97884327 Z" fill="#CC303C"/>
    <path d="M6.97512808,6.97884327 L1.95085272,2.14098095 C2.93491179,1.1175588 4.20839757,0.419531065 5.60049041,0.140528048 C7.84362218,-0.310279813 10.1652044,0.367855359 11.8129904,1.95520197 C13.1781004,3.26968749 13.9475829,5.0843836 13.9434419,6.97947733 L6.97576214,6.97947733 L6.97512808,6.97884327 Z" fill="#0053A3"/>
    <path d="M1.8215049,9.80737588 L1.56978388,9.69704978 L1.39541794,9.90375268 L1.42141431,9.63935051 L1.16969331,9.53599907 L1.43409548,9.47132515 L1.45375128,9.20628892 L1.58943968,9.4389882 L1.85384185,9.36797371 L1.67313534,9.57467661 L1.82213895,9.80737588 L1.8215049,9.80737588 Z M3.86253751,7.13355341 L3.97222954,7.01054617 L3.81751938,6.88817298 C3.70782735,6.90719471 3.58482011,6.9135353 3.47512808,6.9331911 C3.36543605,6.95221284 3.37177664,6.9014882 3.47512808,6.8818324 C3.57847952,6.86281067 3.67549041,6.84949544 3.77884185,6.82983964 C3.70782735,6.76516574 3.70085272,6.75248457 3.61715707,6.77848095 C3.52648678,6.80384327 3.39143244,6.88817298 3.35909548,6.78482154 C3.3330991,6.71380704 3.28110635,6.69415124 3.3527549,6.65547371 C3.40347954,6.63011138 3.4554723,6.5907998 3.50746504,6.57177805 C3.59750128,6.51978529 3.59750128,6.51978529 3.61715707,6.41009327 L3.3844578,6.56543747 L3.28110635,6.63645197 C3.22974765,6.66815487 3.28110635,6.57177806 3.28744692,6.56543747 C3.37811721,6.48744834 3.47512808,6.41643385 3.57213895,6.33907878 C3.64315345,6.28772008 3.61715706,6.21670558 3.61715707,6.13871645 L3.43010997,6.14505704 C3.35909548,6.22938675 3.28110635,6.32639761 3.21009185,6.41009327 C3.13907735,6.50076357 3.10674041,6.46208603 3.17838895,6.36507515 C3.24242881,6.28074544 3.30076214,6.20339037 3.35909548,6.11335414 C3.27476577,6.11969471 3.25574403,6.11335414 3.21009185,6.19070921 C3.17838895,6.24206791 3.14541794,6.29406065 3.12005562,6.34541935 C3.07440345,6.41643385 3.10103388,6.41643385 3.02938534,6.37141574 C2.95837084,6.33971284 2.89369693,6.36507516 2.90701214,6.28074544 C2.92603388,6.21670558 2.93871504,6.17105341 2.95139621,6.10701355 C2.97802664,6.00366211 2.97802664,6.00366211 2.90701214,5.90665124 C2.88799041,5.99668747 2.87467518,6.08735777 2.85501938,6.18436864 L2.82965707,6.3130824 C2.8233165,6.37775631 2.7840049,6.26869834 2.7840049,6.24904254 C2.80302664,6.1260353 2.80936723,6.00366211 2.82902301,5.8876295 C2.83536359,5.8032998 2.77766431,5.77730341 2.71933098,5.7126295 L2.5969578,5.87431428 C2.61597954,5.98400631 2.62232013,6.10701355 2.64197591,6.21670558 C2.66099765,6.32639761 2.61027301,6.32005703 2.59061721,6.21670558 C2.57096142,6.11335414 2.55828025,6.01634326 2.53862447,5.91299182 C2.48726577,5.98400631 2.4612694,5.99034689 2.48726577,6.07467661 C2.50628751,6.13871647 2.51896867,6.18436864 2.53164982,6.24904254 C2.55130562,6.32639761 2.56462083,6.3130824 2.48726577,6.33907878 C2.41625128,6.3644411 2.38391433,6.42340848 2.33826214,6.35810051 C2.31289982,6.30737588 2.27422228,6.25538312 2.25456649,6.20339037 C2.20257373,6.11335414 2.18989258,6.11335414 2.09288171,6.10003892 C2.14487447,6.17802805 2.19623315,6.24904254 2.25456649,6.32639761 L2.32558098,6.42974907 C2.35728388,6.48110777 2.26090707,6.42974907 2.25456649,6.42340848 L2.02186721,6.13871645 C1.97050852,6.06770196 1.89949402,6.09433239 1.82213895,6.10701355 L1.84750128,6.30674182 C1.93817157,6.37775631 2.0282078,6.44243022 2.12521867,6.51344471 C2.22222954,6.58445921 2.17721143,6.61679616 2.09351577,6.54578168 C2.00918607,6.48110777 1.931831,6.43608964 1.84116069,6.37141574 C1.84750126,6.45574544 1.84116069,6.47476718 1.91851577,6.5197853 C2.00284548,6.57177806 2.16389621,6.59777443 2.10619692,6.70112588 C2.07385996,6.77214037 2.09985635,6.82983964 2.02186721,6.81081791 C1.96457877,6.79257831 1.90637768,6.77734021 1.84750128,6.76516574 C1.71878751,6.73346284 1.71878751,6.73346284 1.62811721,6.79750268 C1.71878751,6.81652442 1.80882374,6.82983964 1.90583461,6.84949544 L2.0282078,6.86851718 C2.09985636,6.87485775 1.98382374,6.91416935 1.96416794,6.91416935 C1.8411607,6.90782878 1.71878751,6.88817298 1.6027549,6.8818324 C1.5184252,6.87549183 1.49242881,6.9331911 1.4277549,6.99152443 L1.5830991,7.11389761 C1.69279114,7.09487588 1.81516433,7.08853529 1.92549041,7.06951355 C2.03518244,7.04985775 2.0282078,7.10121645 1.92549041,7.1202382 C1.82213896,7.139894 1.72512808,7.15257516 1.62114258,7.17223095 C1.69279114,7.22422371 1.69913171,7.24958602 1.78282735,7.22422371 C1.87349765,7.19822733 2.00918605,7.11389761 2.04152301,7.21788312 C2.06688534,7.28826355 2.11887808,7.30791935 2.06054475,7.35293747 C2.00918605,7.37893385 1.95719331,7.41761138 1.90583461,7.43726718 C1.81516431,7.48862588 1.81516431,7.48862588 1.79614258,7.59831791 L2.0282078,7.44360777 L2.13155924,7.37259327 C2.183552,7.34025631 2.13155924,7.43726718 2.12521867,7.44360777 C2.03337033,7.52235277 1.93861855,7.59764659 1.84116069,7.6693324 C1.77014619,7.72132516 1.79614258,7.79233964 1.8094578,7.86969471 L2.00918605,7.8443324 C2.08020055,7.75366211 2.15755562,7.66299183 2.22857011,7.56598095 C2.29958461,7.47594471 2.33192156,7.51462225 2.26090707,7.61163312 C2.19698144,7.69136778 2.13871699,7.77548046 2.08654114,7.86335414 C2.17087084,7.85701357 2.18989258,7.86335414 2.23491069,7.78599907 C2.26724765,7.73400631 2.29958459,7.68264763 2.31924041,7.63065487 C2.36425852,7.55964037 2.33826214,7.55964037 2.40927664,7.59895197 C2.48029114,7.63065487 2.54496504,7.60529254 2.51960272,7.68264761 C2.49994692,7.74668747 2.48726576,7.79233964 2.47395055,7.85701355 C2.44858822,7.96036499 2.44858822,7.96670558 2.51960272,8.05674182 C2.53862445,7.96670558 2.55130562,7.87603529 2.57096142,7.77902443 L2.58998315,7.65665124 C2.59632373,7.58563675 2.63563532,7.70166935 2.63563534,7.72132515 C2.62929476,7.84369834 2.61027301,7.96670558 2.60329838,8.0827382 C2.5969578,8.16706791 2.65465707,8.19243023 2.72567157,8.24442298 L2.84867881,8.08907878 C2.82965707,7.97938675 2.81697591,7.85701355 2.80366069,7.74668747 C2.78463895,7.63699544 2.83536359,7.64397008 2.85501938,7.74668747 C2.87404112,7.85067298 2.88735635,7.9470498 2.91969331,8.0510353 C2.97168607,7.97938675 2.9907078,7.97304617 2.97168605,7.88935051 L2.91969331,7.71498457 C2.90067157,7.63699544 2.88799041,7.65031067 2.96471142,7.62431428 C3.03572591,7.59895196 3.06806286,7.54061862 3.10039982,7.60529254 C3.13273678,7.65601718 3.16507373,7.70800994 3.19107011,7.76000268 C3.25574402,7.85067298 3.25574402,7.85067298 3.36543605,7.86335414 C3.31369808,7.78638361 3.25978135,7.71090019 3.20375128,7.63699544 L3.13273678,7.533644 C3.10103388,7.4822853 3.19741069,7.533644 3.20375128,7.53998457 L3.43645055,7.82467661 C3.48780924,7.8956911 3.55882374,7.8563795 3.63681287,7.8563795 L3.60447591,7.68264761 C3.51380562,7.61163312 3.42313534,7.54695921 3.32675852,7.47594471 C3.23608822,7.40493022 3.27476576,7.38527442 3.35846142,7.44360777 C3.44279112,7.50828168 3.53346142,7.5532998 3.61081649,7.61797371 C3.60447591,7.533644 3.61081649,7.51462226 3.53346142,7.46897008 C3.44913171,7.41824544 3.28808098,7.39161501 3.34578025,7.28826355 C3.37811721,7.22358964 3.35212083,7.15954978 3.43010997,7.18491211 C3.49414983,7.20456791 3.539802,7.21724907 3.60447591,7.23056428 C3.70782735,7.25592661 3.70782735,7.25592661 3.80420417,7.18491211 C3.7268491,7.16589037 3.64949403,7.15954978 3.57213895,7.14052805 L3.44279114,7.11389761 C3.4237694,7.11389761 3.35909548,7.04985775 3.41742881,7.06253892 L3.86253751,7.13355341 L3.86253751,7.13355341 Z M5.01208461,7.19822733 L5.16679475,6.97884327 L5.01208461,6.75882515 L5.26380562,6.84315487 L5.41914982,6.61679617 L5.41914982,6.8818324 L5.67721142,6.96552805 L5.42549041,7.04288312 L5.42549041,7.32060051 L5.26380562,7.09487588 L5.01208461,7.19822733 Z M1.8215049,4.14967661 L1.56914982,4.26000268 L1.39478388,4.05329978 L1.42078025,4.31770197 L1.17539982,4.43436864 L1.44043605,4.48572733 L1.4594578,4.75076355 L1.59514621,4.51806428 L1.86018244,4.5827382 L1.67947591,4.38237588 L1.8215049,4.14967661 L1.8215049,4.14967661 Z" fill="#FAD400"/>
  </g>
</svg>
