<svg xmlns="http://www.w3.org/2000/svg" viewBox="0 0 15 14" class="design-iconfont">
  <g fill-rule="nonzero" fill="none">
    <path d="M6.8625,13.7196429 C10.6497,13.7196429 13.7196429,10.6497 13.7196429,6.8625 C13.7196429,3.0753 10.6497,0.0053571375 6.8625,0.0053571375 C3.0753,0.0053571375 0.0053571375,3.0753 0.0053571375,6.8625 C0.0053571375,10.6497 3.0753,13.7196429 6.8625,13.7196429 Z" fill="#FFF" transform="translate(.2)"/>
    <path d="M7.38912857,2.04261429 L11.7674143,2.04261429 C11.4218143,1.69770001 11.0419286,1.43850001 10.6277571,1.09290001 L7.38912857,1.09290001 L7.38912857,2.04192857 L7.38912857,2.04261429 Z M7.38912857,4.20192857 L13.1491286,4.20192857 C13.0113,3.85632857 12.8474143,3.51072857 12.6567857,3.25152857 L7.38912857,3.25152857 L7.38912857,4.20192857 Z M13.1505,9.47164286 L0.54021428,9.47164286 C0.678728571,9.81655714 0.84261428,10.1621571 1.03255714,10.4213571 L12.6485571,10.4213571 C12.8385,10.1621571 13.0113,9.81655714 13.1491286,9.47164286 L13.1505,9.47164286 Z M11.7681,11.6302714 L1.92261428,11.6302714 C2.26821428,11.9758714 2.64809999,12.3214714 3.06227142,12.5806714 L10.6277571,12.5806714 C11.0426143,12.3214714 11.4225,11.9758714 11.7681,11.6302714 Z M13.6586143,7.39804286 L0.0307285714,7.39804286 C0.0567857089,7.74364286 0.10821428,8.00284286 0.177471434,8.34844286 L13.5207857,8.34844286 C13.5811286,8.00284286 13.6325571,7.74364286 13.6586143,7.39804286 Z M7.38912857,6.27484286 L13.6586143,6.27484286 C13.6243664,5.95617859 13.5753998,5.63926864 13.5118714,5.32512857 L7.38844285,5.32512857 L7.38844285,6.27484286 L7.38912857,6.27484286 Z" fill="#FFF" transform="translate(.2)"/>
    <path d="M10.6270714,1.09358571 C9.66021429,0.488785709 8.59735715,0.0917571375 7.38912857,0.0053571375 L7.38912857,1.09358571 L10.6277571,1.09358571 L10.6270714,1.09358571 Z" fill="#D43630" transform="translate(.2)"/>
    <path d="M6.84467143,0.0708261571 C6.72398572,0.0708261571 6.6033,0.122026157 6.48192857,0.122026157 L7.19918571,0.122026157 C7.08672857,0.122026157 6.96604285,0.0665594571 6.84467143,0.0665595571 L6.84467143,0.0708261571 Z" fill="#FF1300" transform="translate(.2)"/>
    <path d="M7.38912857,3.25290001 L12.6567857,3.25290001 C12.3975857,2.82090001 12.1041,2.38890001 11.7674143,2.04398571 L7.38912857,2.04398571 L7.38912857,3.25290001 Z M7.38912857,5.32512857 L13.5118714,5.32512857 C13.4184961,4.94261093 13.2972582,4.56743794 13.1491286,4.20261429 L7.38912857,4.20261429 L7.38912857,5.32512857 L7.38912857,5.32512857 Z M7.38912857,7.39872857 L13.6586143,7.39872857 C13.6757571,7.22592857 13.6846714,7.02707143 13.6846714,6.83712857 C13.6846714,6.6471857 13.6757571,6.44832857 13.6586143,6.27621429 L7.38912857,6.27621429 L7.38912857,7.39872857 Z M13.5125571,8.34775714 L0.178157137,8.34775714 C0.258678646,8.73379817 0.380285459,9.11011263 0.5409,9.47027142 L13.1498143,9.47027142 C13.3142818,9.111601 13.4360309,8.73484598 13.5125571,8.34775714 Z M12.6567857,10.4199857 L1.03255714,10.4199857 C1.29175714,10.8519857 1.58524285,11.2833 1.92192858,11.6289 L11.7674143,11.6289 C12.0958714,11.2833 12.3982714,10.8513 12.6567857,10.4193 L12.6567857,10.4199857 Z M3.06295714,12.5799857 C4.14227142,13.2705 5.44649999,13.7196429 6.84535714,13.7196429 C8.24421428,13.7196429 9.54021428,13.2705 10.6284429,12.5799857 L3.06295714,12.5799857 L3.06295714,12.5799857 Z" fill="#D43630" transform="translate(.2)"/>
    <path d="M7.38912857,6.26661429 L7.38912857,0.0053571375 C7.30272857,0.0053571375 7.24238571,0.0574714286 7.19918571,0.0574714286 L6.48261429,0.0574714286 C5.86067143,0.0574714286 5.26478572,0.204214291 4.70318572,0.385242862 L4.78958572,0.661585709 L5.10089999,0.661585709 L4.84992857,0.817242862 L4.94524286,1.09358571 L4.69495715,0.903642862 L4.44467142,1.08467143 L4.53929999,0.817242862 L4.28901429,0.661585709 L4.59964286,0.661585709 L4.68604286,0.359871429 C4.1579433,0.529215068 3.65319568,0.764195704 3.18364285,1.0593 L3.19187142,1.09358571 L3.15758571,1.06752857 C2.84695714,1.26638571 2.56170001,1.48238571 2.28535714,1.72375714 L2.33678571,1.81907143 L2.25107143,1.76695714 C1.67573111,2.28905578 1.1936229,2.90543078 0.825471434,3.58958571 L1.12787143,3.58958571 L1.22318571,3.29541429 L1.31781428,3.58958571 L1.62912857,3.58958571 L1.37884286,3.76238571 L1.47347143,4.04695715 L1.22318571,3.86592858 L0.9729,4.04695715 L1.06752857,3.75347142 L0.825471434,3.60672858 C0.696557154,3.83987144 0.5841,4.02090001 0.480557138,4.36649999 L0.747985709,4.36649999 L0.4977,4.51324286 L0.592328571,4.78958572 L0.36878572,4.59964286 C0.245298825,4.97488192 0.14994904,5.35880231 0.0835285661,5.74821429 L0.256328566,5.74821429 L0.351642857,5.46364286 L0.446271429,5.75712857 L0.75758572,5.75712857 L0.506614291,5.95598572 L0.601928566,6.2577 L0.351642857,6.0849 L0.101357148,6.26661429 L0.19598572,5.97312857 L0.0752999946,5.88672857 C0.0314142911,6.19735714 0.0053571375,6.50867143 0.0053571375,6.82821429 C0.0053571375,7.01815715 0.0142714286,7.21632857 0.0314142911,7.38912857 L7.38912857,7.38912857 L7.38912857,6.26661429 Z M6.6897,5.52398572 L6.43941429,5.34227143 L6.18912857,5.52398572 L6.28375714,5.23872857 L6.03347143,5.06592857 L6.3441,5.06592857 L6.43941429,4.77244286 L6.53404286,5.06592857 L6.84535714,5.06592857 L6.59507143,5.23872857 L6.6897,5.52398572 L6.6897,5.52398572 Z M4.95415715,5.52398572 L4.70318572,5.34227143 L4.45289999,5.52398572 L4.54821429,5.23872857 L4.29724286,5.06592857 L4.60855715,5.06592857 L4.70318572,4.77244286 L4.79849999,5.06592857 L5.10021429,5.06592857 L4.84992857,5.23872857 L4.95415715,5.52398572 L4.95415715,5.52398572 Z M3.20970001,5.52398572 L2.95872858,5.34227143 L2.70844285,5.52398572 L2.80375714,5.23872857 L2.55278571,5.06592857 L2.86410001,5.06592857 L2.95872858,4.77244286 L3.05404285,5.06592857 L3.36467142,5.06592857 L3.11438571,5.23872857 L3.20970001,5.52398572 Z M3.42501429,2.82090001 L3.73632858,2.82090001 L3.83095715,2.52741428 L3.92627142,2.82090001 L4.23689999,2.82090001 L3.98661429,3.01084285 L4.08192858,3.30432858 L3.83095715,3.12330001 L3.58067142,3.30432858 L3.67598571,3.00261428 L3.42501429,2.82090001 Z M5.10089999,2.04330001 L4.84992857,2.25107143 L4.94524286,2.55278571 L4.69495715,2.37998571 L4.44467142,2.56170001 L4.53929999,2.24215714 L4.28901429,2.03507143 L4.59964286,2.03507143 L4.69495715,1.74090001 L4.78958572,2.03507143 L5.10089999,2.03507143 L5.10089999,2.04330001 L5.10089999,2.04330001 Z M4.95415715,4.04695715 L4.7025,3.86592858 L4.45221429,4.04695715 L4.54752857,3.76238571 L4.29655714,3.58958571 L4.60787143,3.58958571 L4.7025,3.29541429 L4.79781429,3.58958571 L5.09952857,3.58958571 L4.84924286,3.76238571 L4.95347143,4.04695715 L4.95415715,4.04695715 Z M2.95872858,3.30432858 L3.05404285,3.59781429 L3.36467142,3.59781429 L3.11438571,3.77061429 L3.20970001,4.05587142 L2.95872858,3.87415715 L2.70844285,4.05587142 L2.80375714,3.77061429 L2.55278571,3.59781429 L2.86410001,3.59781429 L2.95872858,3.30432858 L2.95872858,3.30432858 Z M3.83164285,4.08192858 L3.92695714,4.37541429 L4.23758571,4.37541429 L3.98730001,4.52215715 L4.08261428,4.79849999 L3.83164285,4.60855715 L3.58135714,4.78135715 L3.67667143,4.51392858 L3.42570001,4.35827142 L3.73701428,4.35827142 L3.83164285,4.08192858 Z M5.97381429,4.37541429 L5.72352858,4.52215715 L5.81815715,4.79849999 L5.56787142,4.60855715 L5.31758571,4.78135715 L5.41221429,4.51392858 L5.16192858,4.35827142 L5.47255715,4.35827142 L5.56787142,4.06409999 L5.66249999,4.35827142 L5.97381429,4.35827142 L5.97381429,4.37541429 L5.97381429,4.37541429 Z M6.69038572,4.04695715 L6.44009999,3.86592858 L6.18981429,4.04695715 L6.28444286,3.76238571 L6.03415715,3.58958571 L6.34478572,3.58958571 L6.44009999,3.29541429 L6.53472857,3.58958571 L6.84604286,3.58958571 L6.59575715,3.76238571 L6.69038572,4.04695715 L6.69038572,4.04695715 Z M5.81815715,3.30432858 L5.56787142,3.12330001 L5.31758571,3.30432858 L5.41221429,3.00261428 L5.16192858,2.81198571 L5.47255715,2.81198571 L5.56787142,2.51850001 L5.66249999,2.81198571 L5.97381429,2.81198571 L5.72352858,3.00192858 L5.81815715,3.30432858 L5.81815715,3.30432858 Z M6.84604286,2.04330001 L6.59575715,2.25107143 L6.69038572,2.55278571 L6.44009999,2.37998571 L6.18981429,2.56170001 L6.28444286,2.24215714 L6.03415715,2.03507143 L6.34478572,2.03507143 L6.44009999,1.74090001 L6.53472857,2.03507143 L6.84604286,2.03507143 L6.84604286,2.04330001 L6.84604286,2.04330001 Z M6.44009999,0.3681 L6.53472857,0.661585709 L6.84604286,0.661585709 L6.59575715,0.817242863 L6.69038572,1.09358571 L6.44009999,0.903642863 L6.18981429,1.08467143 L6.28444286,0.817242863 L6.03415715,0.661585709 L6.34478572,0.661585709 L6.44009999,0.3681 L6.44009999,0.3681 Z M5.67141429,1.35278571 L5.98204286,1.35278571 L5.73175715,1.53381428 L5.82707142,1.82730001 L5.57609999,1.64627143 L5.32581429,1.81907143 L5.42112858,1.52558571 L5.17015715,1.34387143 L5.48147142,1.34387143 L5.57609999,1.05038571 L5.67141429,1.35210001 L5.67141429,1.35278571 Z M3.83164285,1.0593 L3.92695714,1.35278571 L4.23758571,1.35278571 L3.98730001,1.53381428 L4.08261428,1.82730001 L3.83164285,1.64627143 L3.58135714,1.81907143 L3.67667143,1.52558571 L3.42570001,1.34387143 L3.73701428,1.34387143 L3.83164285,1.0593 Z M2.95872858,1.74981428 L3.05404285,2.04330001 L3.36467142,2.04330001 L3.11438571,2.24215714 L3.20970001,2.54387142 L2.95872858,2.37175714 L2.70844285,2.55278571 L2.80375714,2.23324285 L2.55278571,2.02615714 L2.86410001,2.02615714 L2.95872858,1.74981428 L2.95872858,1.74981428 Z M1.68947143,2.82090001 L1.99118571,2.82090001 L2.08718571,2.52741428 L2.18181428,2.82090001 L2.49244285,2.82090001 L2.24215714,3.01084285 L2.33747143,3.30432858 L2.08650001,3.12330001 L1.83621428,3.30432858 L1.93152857,3.00261428 L1.68947143,2.82090001 L1.68947143,2.82090001 Z M2.08718571,4.08192858 L2.18181428,4.37541429 L2.49244285,4.37541429 L2.24215714,4.52215715 L2.33747143,4.79849999 L2.08650001,4.60855715 L1.83621428,4.78135715 L1.93152857,4.51392858 L1.68055714,4.35827142 L1.99187143,4.35827142 L2.08650001,4.08192858 L2.08718571,4.08192858 Z M0.816557143,5.06592857 L1.12718571,5.06592857 L1.22250001,4.77244286 L1.31712858,5.06592857 L1.62844285,5.06592857 L1.37815714,5.23872857 L1.47278571,5.53221429 L1.22250001,5.35118572 L0.97221428,5.53221429 L1.06684285,5.24764286 L0.816557143,5.06592857 L0.816557143,5.06592857 Z M1.46387142,7.00924286 L1.22250001,6.82821429 L0.97221428,7.00924286 L1.06684285,6.71575714 L0.816557143,6.53404286 L1.12718571,6.53404286 L1.22250001,6.24055714 L1.31712858,6.53404286 L1.62844285,6.53404286 L1.37815714,6.71575714 L1.46387142,7.00924286 L1.46387142,7.00924286 Z M1.84444285,6.26661429 L1.93907142,5.95598572 L1.68878571,5.75712857 L1.99049999,5.75712857 L2.08650001,5.46364286 L2.18112858,5.75712857 L2.49175715,5.75712857 L2.24147142,5.95598572 L2.33678571,6.2577 L2.08581429,6.0849 L1.84444285,6.26661429 L1.84444285,6.26661429 Z M3.20901429,7.00924286 L2.95804286,6.82821429 L2.70775715,7.00924286 L2.80307142,6.71575714 L2.55209999,6.53404286 L2.86341429,6.53404286 L2.95804286,6.24055714 L3.05335715,6.53404286 L3.36398572,6.53404286 L3.11369999,6.71575714 L3.20901429,7.00924286 Z M3.57998572,6.26661429 L3.67529999,5.95598572 L3.42432857,5.75712857 L3.73564286,5.75712857 L3.83027143,5.46364286 L3.92558572,5.75712857 L4.23621429,5.75712857 L3.98592857,5.95598572 L4.08124286,6.2577 L3.83027143,6.0849 L3.57998572,6.26661429 L3.57998572,6.26661429 Z M4.95347143,7.00924286 L4.7025,6.82821429 L4.45221429,7.00924286 L4.54752857,6.71575714 L4.29655714,6.53404286 L4.60787143,6.53404286 L4.7025,6.24055714 L4.79781429,6.53404286 L5.09952857,6.53404286 L4.84924286,6.71575714 L4.95347143,7.00924286 Z M5.32444286,6.26661429 L5.41975714,5.95598572 L5.16878571,5.75712857 L5.4801,5.75712857 L5.57472857,5.46364286 L5.67004286,5.75712857 L5.98067143,5.75712857 L5.73038571,5.95598572 L5.8257,6.2577 L5.57472857,6.0849 L5.32444286,6.26661429 L5.32444286,6.26661429 Z M6.68901428,7.00924286 L6.43872857,6.82821429 L6.18844286,7.00924286 L6.28307143,6.71575714 L6.03278571,6.53404286 L6.34341428,6.53404286 L6.43872857,6.24055714 L6.53335714,6.53404286 L6.84467143,6.53404286 L6.59438571,6.71575714 L6.68901428,7.00924286 L6.68901428,7.00924286 Z" fill="#3C3B6E" transform="translate(.2)"/>
    <path d="M0.505928571,4.52215715 L0.75621428,4.37541429 L0.488785709,4.37541429 C0.445585709,4.37541429 0.41061428,4.54821429 0.376328571,4.65175715 L0.600557143,4.81632858 L0.505928571,4.52215715 Z M0.0999857089,6.26729999 L0.350957137,6.08627142 L0.601242862,6.26729999 L0.505928571,5.95667142 L0.7569,5.75781429 L0.445585709,5.75781429 L0.350957137,5.46432858 L0.255642862,5.75781429 L0.0828428625,5.75781429 C0.0746142911,5.84421429 0.0746142911,5.83598571 0.0746142911,5.87027142 L0.1953,5.96489999 L0.0999857089,6.26729999 Z M0.97221428,4.04764285 L1.22318571,3.86592858 L1.47347143,4.04764285 L1.37815714,3.76238571 L1.62912857,3.58958571 L1.31781428,3.58958571 L1.22318571,3.29610001 L1.12787143,3.59781429 L0.835071429,3.59781429 L0.835071429,3.58958571 L1.07712857,3.75415714 L0.97358572,4.04764285 L0.97221428,4.04764285 Z M0.97221428,5.52467142 L1.22318571,5.34295715 L1.46455714,5.52467142 L1.36992857,5.23941429 L1.62021428,5.06661429 L1.3185,5.06661429 L1.22250001,4.77312858 L1.12787143,5.06661429 L0.817242862,5.06661429 L1.06752857,5.23941429 L0.97221428,5.52467142 L0.97221428,5.52467142 Z M1.31781428,6.53472857 L1.22318571,6.24124286 L1.12787143,6.53472857 L0.817242862,6.53472857 L1.06752857,6.71575714 L0.97221428,7.00992857 L1.22318571,6.82821429 L1.46455714,7.00992857 L1.36992857,6.71575714 L1.62021428,6.53472857 L1.3185,6.53472857 L1.31781428,6.53472857 Z M2.31070318,1.71552857 C2.2908619,1.73267143 2.27102065,1.74158571 2.25038571,1.75872857 L2.35038571,1.81907143 L2.31070318,1.71621429 L2.31070318,1.71552857 Z M1.84512857,3.30432858 L2.08650001,3.12330001 L2.33747143,3.30432858 L2.24215714,3.00261428 L2.49244285,2.82090001 L2.18181428,2.82090001 L2.08650001,2.52741428 L1.99187143,2.82090001 L1.69015714,2.82090001 L1.93975714,3.00192858 L1.84512857,3.30432858 L1.84512857,3.30432858 Z M1.68947143,4.37610001 L1.93975714,4.52284285 L1.84512857,4.79918571 L2.08650001,4.60924285 L2.33747143,4.79027142 L2.24215714,4.52284285 L2.49244285,4.37610001 L2.18181428,4.37610001 L2.08650001,4.08192858 L1.99187143,4.37610001 L1.69015714,4.37610001 L1.68947143,4.37610001 Z M2.33678571,6.26729999 L2.24215714,5.95667142 L2.49244285,5.75781429 L2.18181428,5.75781429 L2.08650001,5.46432858 L1.99187143,5.75781429 L1.69015714,5.75781429 L1.93975714,5.95667142 L1.84512857,6.25838572 L2.08650001,6.08627142 L2.33747143,6.26729999 L2.33678571,6.26729999 Z M3.25072857,1.04215714 C3.22472855,1.06120476 3.20072855,1.06120476 3.17472858,1.08183969 L3.27472858,1.14215714 L3.25072857,1.04215714 Z M2.56238571,2.04261429 L2.80375714,2.24147142 L2.70912857,2.55209999 L2.95941428,2.37929999 L3.20970001,2.56101429 L3.11507143,2.24147142 L3.36535714,2.04261429 L3.05404285,2.04261429 L2.95941428,1.74912858 L2.86410001,2.04261429 L2.56238571,2.04261429 L2.56238571,2.04261429 Z M2.80375714,3.76307143 L2.70912857,4.04832857 L2.95941428,3.86661428 L3.20970001,4.04832857 L3.11507143,3.76307143 L3.36535714,3.59850001 L3.05404285,3.59850001 L2.95941428,3.30501428 L2.86410001,3.59918571 L2.56238571,3.59918571 L2.80375714,3.76307143 L2.80375714,3.76307143 Z M3.36535714,5.06661429 L3.05404285,5.06661429 L2.95941428,4.77312858 L2.86410001,5.06661429 L2.56238571,5.06661429 L2.80375714,5.23941429 L2.70912857,5.53289999 L2.95941428,5.34295715 L3.20970001,5.52467142 L3.11507143,5.23941429 L3.36535714,5.06661429 L3.36535714,5.06661429 Z M3.05404285,6.53472857 L2.95941428,6.24124286 L2.86410001,6.53472857 L2.56238571,6.53472857 L2.80375714,6.71575714 L2.70912857,7.00992857 L2.95941428,6.82821429 L3.20970001,7.00992857 L3.11507143,6.71575714 L3.36535714,6.53472857 L3.05404285,6.53472857 L3.05404285,6.53472857 Z M3.42501429,1.35141429 L3.67598571,1.53312858 L3.58067142,1.81769999 L3.83095715,1.63667142 L4.08124286,1.81769999 L3.98661429,1.53312858 L4.23689999,1.35141429 L3.92627142,1.35141429 L3.83095715,1.05792858 L3.73632858,1.35141429 L3.42501429,1.35141429 L3.42501429,1.35141429 Z M3.58067142,3.30432858 L3.83095715,3.12330001 L4.08124286,3.30432858 L3.98661429,3.00261428 L4.23689999,2.82090001 L3.92627142,2.82090001 L3.83095715,2.52741428 L3.73632858,2.82090001 L3.42501429,2.82090001 L3.67598571,3.00192858 L3.58067142,3.30432858 Z M3.42501429,4.37610001 L3.67598571,4.52284285 L3.58067142,4.79918571 L3.83095715,4.60924285 L4.08124286,4.79027142 L3.98661429,4.52284285 L4.23689999,4.37610001 L3.92627142,4.37610001 L3.83095715,4.08192858 L3.73632858,4.37610001 L3.42501429,4.37610001 Z M4.08124286,6.26729999 L3.98661429,5.95667142 L4.23689999,5.75781429 L3.92627142,5.75781429 L3.83095715,5.46432858 L3.73632858,5.75781429 L3.42501429,5.75781429 L3.67598571,5.95667142 L3.58067142,6.25838572 L3.83095715,6.08627142 L4.08124286,6.26729999 L4.08124286,6.26729999 Z M4.29792858,0.660900005 L4.54821429,0.816557143 L4.45289999,1.09290001 L4.70387142,0.902957143 L4.95415715,1.08467143 L4.85884286,0.817242862 L5.10089999,0.660900005 L4.79027142,0.660900005 L4.70387142,0.359185709 L4.69495715,0.376328571 L4.60855715,0.660900005 L4.29792858,0.660900005 L4.29792858,0.660900005 Z M4.70387142,1.74912858 L4.60855715,2.04261429 L4.29792858,2.04261429 L4.54821429,2.24147142 L4.45289999,2.55209999 L4.70387142,2.37929999 L4.95415715,2.56101429 L4.85884286,2.24147142 L5.10089999,2.04261429 L4.79918571,2.04261429 L4.70318572,1.74912858 L4.70387142,1.74912858 Z M4.79849999,3.59850001 L4.70387142,3.30501428 L4.60855715,3.59918571 L4.29792858,3.59918571 L4.54821429,3.76307143 L4.45289999,4.04832857 L4.70387142,3.86661428 L4.95415715,4.04832857 L4.85884286,3.76307143 L5.10089999,3.59850001 L4.79918571,3.59850001 L4.79849999,3.59850001 Z M5.10089999,5.06661429 L4.79918571,5.06661429 L4.70318572,4.77312858 L4.60855715,5.06661429 L4.29792858,5.06661429 L4.54821429,5.23941429 L4.45289999,5.53289999 L4.70387142,5.34295715 L4.95415715,5.52467142 L4.85884286,5.23941429 L5.10089999,5.06661429 L5.10089999,5.06661429 Z M4.79849999,6.53472857 L4.70387142,6.24124286 L4.60855715,6.53472857 L4.29792858,6.53472857 L4.54821429,6.71575714 L4.45289999,7.00992857 L4.70387142,6.82821429 L4.95415715,7.00992857 L4.85884286,6.71575714 L5.10089999,6.53472857 L4.79918571,6.53472857 L4.79849999,6.53472857 Z M5.48078572,1.35141429 L5.16878571,1.35141429 L5.41907143,1.53312858 L5.32444286,1.81769999 L5.57472857,1.63667142 L5.81678571,1.81769999 L5.72147143,1.53312858 L5.97244286,1.35141429 L5.67004286,1.35141429 L5.57472857,1.05792858 L5.4801,1.35141429 L5.48078572,1.35141429 Z M5.97312857,2.82090001 L5.67072857,2.82090001 L5.57541429,2.52741428 L5.48078572,2.82090001 L5.16878571,2.82090001 L5.41907143,3.00192858 L5.32444286,3.30432858 L5.57472857,3.12330001 L5.81678571,3.30432858 L5.72147143,3.00261428 L5.97244286,2.82090001 L5.97312857,2.82090001 Z M5.57541429,4.08192858 L5.48078572,4.37610001 L5.16878571,4.37610001 L5.41907143,4.52284285 L5.32444286,4.79918571 L5.57472857,4.60924285 L5.81678571,4.79027142 L5.72147143,4.52284285 L5.97244286,4.37610001 L5.67004286,4.37610001 L5.57472857,4.08192858 L5.57541429,4.08192858 Z M5.81747143,6.26729999 L5.72215714,5.95667142 L5.97312857,5.75781429 L5.67072857,5.75781429 L5.57541429,5.46432858 L5.48078572,5.75781429 L5.16878571,5.75781429 L5.41907143,5.95667142 L5.32444286,6.25838572 L5.57472857,6.08627142 L5.81678571,6.26729999 L5.81747143,6.26729999 Z M6.29267143,0.817242862 L6.19735714,1.09358571 L6.43941429,0.903642862 L6.6897,1.08535714 L6.59507143,0.817928566 L6.84535714,0.662271429 L6.53472857,0.662271429 L6.43941429,0.3681 L6.34478572,0.662271429 L6.04238572,0.662271429 L6.29267143,0.817242862 L6.29267143,0.817242862 Z M6.43941429,1.74912858 L6.34478572,2.04261429 L6.04238572,2.04261429 L6.29267143,2.24147142 L6.19735714,2.55209999 L6.43941429,2.37929999 L6.6897,2.56101429 L6.59507143,2.24147142 L6.84535714,2.04261429 L6.53472857,2.04261429 L6.43941429,1.74912858 L6.43941429,1.74912858 Z M6.53472857,3.59850001 L6.43941429,3.30501428 L6.34478572,3.59918571 L6.04238572,3.59918571 L6.29267143,3.76307143 L6.19735714,4.04832857 L6.43941429,3.86661428 L6.6897,4.04832857 L6.59507143,3.76307143 L6.84535714,3.59850001 L6.53472857,3.59850001 L6.53472857,3.59850001 Z M6.84535714,5.06661429 L6.53472857,5.06661429 L6.43941429,4.77312858 L6.34478572,5.06661429 L6.04238572,5.06661429 L6.29267143,5.23941429 L6.19735714,5.53289999 L6.43941429,5.34295715 L6.6897,5.52467142 L6.59507143,5.23941429 L6.84535714,5.06661429 L6.84535714,5.06661429 Z M6.53472857,6.53472857 L6.43941429,6.24124286 L6.34478572,6.53472857 L6.04238572,6.53472857 L6.29267143,6.71575714 L6.19735714,7.00992857 L6.43941429,6.82821429 L6.6897,7.00992857 L6.59507143,6.71575714 L6.84535714,6.53472857 L6.53472857,6.53472857 L6.53472857,6.53472857 Z" fill="#FFF" transform="translate(.2)"/>
  </g>
</svg>
